<svg xmlns="http://www.w3.org/2000/svg" width="40" height="40" viewBox="0 0 1024 1024">
  <defs>
    <linearGradient id="bg" x1="0" y1="0" x2="0.35" y2="1">
      <stop offset="0" stop-color="#26306b"/>
      <stop offset="0.55" stop-color="#141a42"/>
      <stop offset="1" stop-color="#0a0d24"/>
    </linearGradient>
    <radialGradient id="halo" cx="0.5" cy="0.5" r="0.5">
      <stop offset="0.55" stop-color="#ff9a3d" stop-opacity="0.28"/>
      <stop offset="1" stop-color="#ff9a3d" stop-opacity="0"/>
    </radialGradient>
    <radialGradient id="core" cx="0.5" cy="0.5" r="0.5">
      <stop offset="0" stop-color="#fff4d6"/>
      <stop offset="0.45" stop-color="#ffd27a"/>
      <stop offset="1" stop-color="#1a1440"/>
    </radialGradient>
    <linearGradient id="rim" x1="0" y1="0" x2="0" y2="1">
      <stop offset="0" stop-color="#ffffff" stop-opacity="0.22"/>
      <stop offset="1" stop-color="#ffffff" stop-opacity="0"/>
    </linearGradient>
    <radialGradient id="b0" gradientUnits="userSpaceOnUse" cx="512" cy="512" r="330"><stop offset="0.3" stop-color="#fff0c8"/><stop offset="0.62" stop-color="#ffb23e"/><stop offset="1" stop-color="#d19132"/></radialGradient><radialGradient id="b1" gradientUnits="userSpaceOnUse" cx="512" cy="512" r="330"><stop offset="0.3" stop-color="#ffe6b8"/><stop offset="0.62" stop-color="#ff9135"/><stop offset="1" stop-color="#d1762b"/></radialGradient><radialGradient id="b2" gradientUnits="userSpaceOnUse" cx="512" cy="512" r="330"><stop offset="0.3" stop-color="#ffdcb0"/><stop offset="0.62" stop-color="#ff6f3c"/><stop offset="1" stop-color="#d15b31"/></radialGradient><radialGradient id="b3" gradientUnits="userSpaceOnUse" cx="512" cy="512" r="330"><stop offset="0.3" stop-color="#ffd6b8"/><stop offset="0.62" stop-color="#f2566e"/><stop offset="1" stop-color="#c6465a"/></radialGradient><radialGradient id="b4" gradientUnits="userSpaceOnUse" cx="512" cy="512" r="330"><stop offset="0.3" stop-color="#ffe0b8"/><stop offset="0.62" stop-color="#ff7f45"/><stop offset="1" stop-color="#d16838"/></radialGradient><radialGradient id="b5" gradientUnits="userSpaceOnUse" cx="512" cy="512" r="330"><stop offset="0.3" stop-color="#fff0c8"/><stop offset="0.62" stop-color="#ffa23a"/><stop offset="1" stop-color="#d1842f"/></radialGradient>
  </defs>
  <rect x="24" y="24" width="976" height="976" rx="220" fill="url(#bg)"/>
  <rect x="26" y="26" width="972" height="972" rx="218" fill="none" stroke="url(#rim)" stroke-width="4"/>
  <circle cx="512" cy="512" r="420" fill="url(#halo)"/>
  <circle cx="512" cy="512" r="352" fill="#0d1230"/>
  <path d="M 590.80,612.87 L 498.34,841.72 A 330.00 330.00 0 0 1 219.63,665.03 L 464.05,630.68 Z" fill="url(#b0)" stroke="#0d1230" stroke-width="14" stroke-linejoin="round"/><path d="M 464.05,630.68 L 219.63,665.03 A 330.00 330.00 0 0 1 233.29,335.31 L 385.25,529.81 Z" fill="url(#b1)" stroke="#0d1230" stroke-width="14" stroke-linejoin="round"/><path d="M 385.25,529.81 L 233.29,335.31 A 330.00 330.00 0 0 1 525.66,182.28 L 433.20,411.13 Z" fill="url(#b2)" stroke="#0d1230" stroke-width="14" stroke-linejoin="round"/><path d="M 433.20,411.13 L 525.66,182.28 A 330.00 330.00 0 0 1 804.37,358.97 L 559.95,393.32 Z" fill="url(#b3)" stroke="#0d1230" stroke-width="14" stroke-linejoin="round"/><path d="M 559.95,393.32 L 804.37,358.97 A 330.00 330.00 0 0 1 790.71,688.69 L 638.75,494.19 Z" fill="url(#b4)" stroke="#0d1230" stroke-width="14" stroke-linejoin="round"/><path d="M 638.75,494.19 L 790.71,688.69 A 330.00 330.00 0 0 1 498.34,841.72 L 590.80,612.87 Z" fill="url(#b5)" stroke="#0d1230" stroke-width="14" stroke-linejoin="round"/>
  <circle cx="512" cy="512" r="352" fill="none" stroke="#ffcf8a" stroke-opacity="0.35" stroke-width="6"/>
  <circle cx="512" cy="512" r="112" fill="url(#core)"/><circle cx="512" cy="512" r="40" fill="#fffaf0"/>
</svg>
